<?xml version="1.0" encoding="utf-8" standalone="no"?>
<!DOCTYPE svg PUBLIC "-//W3C//DTD SVG 1.1//EN"
  "http://www.w3.org/Graphics/SVG/1.1/DTD/svg11.dtd">
<svg xmlns:xlink="http://www.w3.org/1999/xlink" width="764.399427pt" height="454.79952pt" viewBox="0 0 764.399427 454.79952" xmlns="http://www.w3.org/2000/svg" version="1.1">
 <metadata>
  <rdf:RDF xmlns:dc="http://purl.org/dc/elements/1.1/" xmlns:cc="http://creativecommons.org/ns#" xmlns:rdf="http://www.w3.org/1999/02/22-rdf-syntax-ns#">
   <cc:Work>
    <dc:type rdf:resource="http://purl.org/dc/dcmitype/StillImage"/>
    <dc:date>2026-04-27T13:25:50.041944</dc:date>
    <dc:format>image/svg+xml</dc:format>
    <dc:creator>
     <cc:Agent>
      <dc:title>Matplotlib v3.10.8, https://matplotlib.org/</dc:title>
     </cc:Agent>
    </dc:creator>
   </cc:Work>
  </rdf:RDF>
 </metadata>
 <defs>
  <style type="text/css">*{stroke-linejoin: round; stroke-linecap: butt}</style>
 </defs>
 <g id="figure_1">
  <g id="patch_1">
   <path d="M 0 454.79952
L 764.399427 454.79952
L 764.399427 0
L 0 0
z
" style="fill: #ffffff"/>
  </g>
  <g id="axes_1">
   <g id="patch_2">
    <path d="M 84.58625 399.25827
L 587.685565 399.25827
L 587.685565 41.43625
L 84.58625 41.43625
z
" style="fill: #ffffff"/>
   </g>
   <g id="matplotlib.axis_1">
    <g id="xtick_1">
     <g id="line2d_1">
      <path d="M 107.454401 399.25827
L 107.454401 41.43625
" clip-path="url(#p02abb7f9dd)" style="fill: none; stroke-dasharray: 3.33,1.44; stroke-dashoffset: 0; stroke: #b0b0b0; stroke-opacity: 0.45; stroke-width: 0.9"/>
     </g>
     <g id="line2d_2">
      <defs>
       <path id="m605099302c" d="M 0 0
L 0 6
" style="stroke: #000000; stroke-width: 1.8"/>
      </defs>
      <g>
       <use xlink:href="#m605099302c" x="107.454401" y="399.25827" style="stroke: #000000; stroke-width: 1.8"/>
      </g>
     </g>
     <g id="text_1">
      <!-- 0.0 -->
      <g transform="translate(93.283151 420.91577) scale(0.16 -0.16)">
       <defs>
        <path id="DejaVuSans-Bold-30" d="M 2944 2338
Q 2944 3213 2780 3570
Q 2616 3928 2228 3928
Q 1841 3928 1675 3570
Q 1509 3213 1509 2338
Q 1509 1453 1675 1090
Q 1841 728 2228 728
Q 2613 728 2778 1090
Q 2944 1453 2944 2338
z
M 4147 2328
Q 4147 1169 3647 539
Q 3147 -91 2228 -91
Q 1306 -91 806 539
Q 306 1169 306 2328
Q 306 3491 806 4120
Q 1306 4750 2228 4750
Q 3147 4750 3647 4120
Q 4147 3491 4147 2328
z
" transform="scale(0.015625)"/>
        <path id="DejaVuSans-Bold-2e" d="M 653 1209
L 1778 1209
L 1778 0
L 653 0
L 653 1209
z
" transform="scale(0.015625)"/>
       </defs>
       <use xlink:href="#DejaVuSans-Bold-30"/>
       <use xlink:href="#DejaVuSans-Bold-2e" transform="translate(69.580078 0)"/>
       <use xlink:href="#DejaVuSans-Bold-30" transform="translate(107.568359 0)"/>
      </g>
     </g>
    </g>
    <g id="xtick_2">
     <g id="line2d_3">
      <path d="M 215.323036 399.25827
L 215.323036 41.43625
" clip-path="url(#p02abb7f9dd)" style="fill: none; stroke-dasharray: 3.33,1.44; stroke-dashoffset: 0; stroke: #b0b0b0; stroke-opacity: 0.45; stroke-width: 0.9"/>
     </g>
     <g id="line2d_4">
      <g>
       <use xlink:href="#m605099302c" x="215.323036" y="399.25827" style="stroke: #000000; stroke-width: 1.8"/>
      </g>
     </g>
     <g id="text_2">
      <!-- 0.5 -->
      <g transform="translate(201.151786 420.91577) scale(0.16 -0.16)">
       <defs>
        <path id="DejaVuSans-Bold-35" d="M 678 4666
L 3669 4666
L 3669 3781
L 1638 3781
L 1638 3059
Q 1775 3097 1914 3117
Q 2053 3138 2203 3138
Q 3056 3138 3531 2711
Q 4006 2284 4006 1522
Q 4006 766 3489 337
Q 2972 -91 2053 -91
Q 1656 -91 1267 -14
Q 878 63 494 219
L 494 1166
Q 875 947 1217 837
Q 1559 728 1863 728
Q 2300 728 2551 942
Q 2803 1156 2803 1522
Q 2803 1891 2551 2103
Q 2300 2316 1863 2316
Q 1603 2316 1309 2248
Q 1016 2181 678 2041
L 678 4666
z
" transform="scale(0.015625)"/>
       </defs>
       <use xlink:href="#DejaVuSans-Bold-30"/>
       <use xlink:href="#DejaVuSans-Bold-2e" transform="translate(69.580078 0)"/>
       <use xlink:href="#DejaVuSans-Bold-35" transform="translate(107.568359 0)"/>
      </g>
     </g>
    </g>
    <g id="xtick_3">
     <g id="line2d_5">
      <path d="M 323.191672 399.25827
L 323.191672 41.43625
" clip-path="url(#p02abb7f9dd)" style="fill: none; stroke-dasharray: 3.33,1.44; stroke-dashoffset: 0; stroke: #b0b0b0; stroke-opacity: 0.45; stroke-width: 0.9"/>
     </g>
     <g id="line2d_6">
      <g>
       <use xlink:href="#m605099302c" x="323.191672" y="399.25827" style="stroke: #000000; stroke-width: 1.8"/>
      </g>
     </g>
     <g id="text_3">
      <!-- 1.0 -->
      <g transform="translate(309.020422 420.91577) scale(0.16 -0.16)">
       <defs>
        <path id="DejaVuSans-Bold-31" d="M 750 831
L 1813 831
L 1813 3847
L 722 3622
L 722 4441
L 1806 4666
L 2950 4666
L 2950 831
L 4013 831
L 4013 0
L 750 0
L 750 831
z
" transform="scale(0.015625)"/>
       </defs>
       <use xlink:href="#DejaVuSans-Bold-31"/>
       <use xlink:href="#DejaVuSans-Bold-2e" transform="translate(69.580078 0)"/>
       <use xlink:href="#DejaVuSans-Bold-30" transform="translate(107.568359 0)"/>
      </g>
     </g>
    </g>
    <g id="xtick_4">
     <g id="line2d_7">
      <path d="M 431.060307 399.25827
L 431.060307 41.43625
" clip-path="url(#p02abb7f9dd)" style="fill: none; stroke-dasharray: 3.33,1.44; stroke-dashoffset: 0; stroke: #b0b0b0; stroke-opacity: 0.45; stroke-width: 0.9"/>
     </g>
     <g id="line2d_8">
      <g>
       <use xlink:href="#m605099302c" x="431.060307" y="399.25827" style="stroke: #000000; stroke-width: 1.8"/>
      </g>
     </g>
     <g id="text_4">
      <!-- 1.5 -->
      <g transform="translate(416.889057 420.91577) scale(0.16 -0.16)">
       <use xlink:href="#DejaVuSans-Bold-31"/>
       <use xlink:href="#DejaVuSans-Bold-2e" transform="translate(69.580078 0)"/>
       <use xlink:href="#DejaVuSans-Bold-35" transform="translate(107.568359 0)"/>
      </g>
     </g>
    </g>
    <g id="xtick_5">
     <g id="line2d_9">
      <path d="M 538.928942 399.25827
L 538.928942 41.43625
" clip-path="url(#p02abb7f9dd)" style="fill: none; stroke-dasharray: 3.33,1.44; stroke-dashoffset: 0; stroke: #b0b0b0; stroke-opacity: 0.45; stroke-width: 0.9"/>
     </g>
     <g id="line2d_10">
      <g>
       <use xlink:href="#m605099302c" x="538.928942" y="399.25827" style="stroke: #000000; stroke-width: 1.8"/>
      </g>
     </g>
     <g id="text_5">
      <!-- 2.0 -->
      <g transform="translate(524.757692 420.91577) scale(0.16 -0.16)">
       <defs>
        <path id="DejaVuSans-Bold-32" d="M 1844 884
L 3897 884
L 3897 0
L 506 0
L 506 884
L 2209 2388
Q 2438 2594 2547 2791
Q 2656 2988 2656 3200
Q 2656 3528 2436 3728
Q 2216 3928 1850 3928
Q 1569 3928 1234 3808
Q 900 3688 519 3450
L 519 4475
Q 925 4609 1322 4679
Q 1719 4750 2100 4750
Q 2938 4750 3402 4381
Q 3866 4013 3866 3353
Q 3866 2972 3669 2642
Q 3472 2313 2841 1759
L 1844 884
z
" transform="scale(0.015625)"/>
       </defs>
       <use xlink:href="#DejaVuSans-Bold-32"/>
       <use xlink:href="#DejaVuSans-Bold-2e" transform="translate(69.580078 0)"/>
       <use xlink:href="#DejaVuSans-Bold-30" transform="translate(107.568359 0)"/>
      </g>
     </g>
    </g>
    <g id="text_6">
     <!-- Elapsed time (s) -->
     <g transform="translate(244.61247 443.440145) scale(0.2 -0.2)">
      <defs>
       <path id="DejaVuSans-Bold-45" d="M 588 4666
L 3834 4666
L 3834 3756
L 1791 3756
L 1791 2888
L 3713 2888
L 3713 1978
L 1791 1978
L 1791 909
L 3903 909
L 3903 0
L 588 0
L 588 4666
z
" transform="scale(0.015625)"/>
       <path id="DejaVuSans-Bold-6c" d="M 538 4863
L 1656 4863
L 1656 0
L 538 0
L 538 4863
z
" transform="scale(0.015625)"/>
       <path id="DejaVuSans-Bold-61" d="M 2106 1575
Q 1756 1575 1579 1456
Q 1403 1338 1403 1106
Q 1403 894 1545 773
Q 1688 653 1941 653
Q 2256 653 2472 879
Q 2688 1106 2688 1447
L 2688 1575
L 2106 1575
z
M 3816 1997
L 3816 0
L 2688 0
L 2688 519
Q 2463 200 2181 54
Q 1900 -91 1497 -91
Q 953 -91 614 226
Q 275 544 275 1050
Q 275 1666 698 1953
Q 1122 2241 2028 2241
L 2688 2241
L 2688 2328
Q 2688 2594 2478 2717
Q 2269 2841 1825 2841
Q 1466 2841 1156 2769
Q 847 2697 581 2553
L 581 3406
Q 941 3494 1303 3539
Q 1666 3584 2028 3584
Q 2975 3584 3395 3211
Q 3816 2838 3816 1997
z
" transform="scale(0.015625)"/>
       <path id="DejaVuSans-Bold-70" d="M 1656 506
L 1656 -1331
L 538 -1331
L 538 3500
L 1656 3500
L 1656 2988
Q 1888 3294 2169 3439
Q 2450 3584 2816 3584
Q 3463 3584 3878 3070
Q 4294 2556 4294 1747
Q 4294 938 3878 423
Q 3463 -91 2816 -91
Q 2450 -91 2169 54
Q 1888 200 1656 506
z
M 2400 2772
Q 2041 2772 1848 2508
Q 1656 2244 1656 1747
Q 1656 1250 1848 986
Q 2041 722 2400 722
Q 2759 722 2948 984
Q 3138 1247 3138 1747
Q 3138 2247 2948 2509
Q 2759 2772 2400 2772
z
" transform="scale(0.015625)"/>
       <path id="DejaVuSans-Bold-73" d="M 3272 3391
L 3272 2541
Q 2913 2691 2578 2766
Q 2244 2841 1947 2841
Q 1628 2841 1473 2761
Q 1319 2681 1319 2516
Q 1319 2381 1436 2309
Q 1553 2238 1856 2203
L 2053 2175
Q 2913 2066 3209 1816
Q 3506 1566 3506 1031
Q 3506 472 3093 190
Q 2681 -91 1863 -91
Q 1516 -91 1145 -36
Q 775 19 384 128
L 384 978
Q 719 816 1070 734
Q 1422 653 1784 653
Q 2113 653 2278 743
Q 2444 834 2444 1013
Q 2444 1163 2330 1236
Q 2216 1309 1875 1350
L 1678 1375
Q 931 1469 631 1722
Q 331 1975 331 2491
Q 331 3047 712 3315
Q 1094 3584 1881 3584
Q 2191 3584 2531 3537
Q 2872 3491 3272 3391
z
" transform="scale(0.015625)"/>
       <path id="DejaVuSans-Bold-65" d="M 4031 1759
L 4031 1441
L 1416 1441
Q 1456 1047 1700 850
Q 1944 653 2381 653
Q 2734 653 3104 758
Q 3475 863 3866 1075
L 3866 213
Q 3469 63 3072 -14
Q 2675 -91 2278 -91
Q 1328 -91 801 392
Q 275 875 275 1747
Q 275 2603 792 3093
Q 1309 3584 2216 3584
Q 3041 3584 3536 3087
Q 4031 2591 4031 1759
z
M 2881 2131
Q 2881 2450 2695 2645
Q 2509 2841 2209 2841
Q 1884 2841 1681 2658
Q 1478 2475 1428 2131
L 2881 2131
z
" transform="scale(0.015625)"/>
       <path id="DejaVuSans-Bold-64" d="M 2919 2988
L 2919 4863
L 4044 4863
L 4044 0
L 2919 0
L 2919 506
Q 2688 197 2409 53
Q 2131 -91 1766 -91
Q 1119 -91 703 423
Q 288 938 288 1747
Q 288 2556 703 3070
Q 1119 3584 1766 3584
Q 2128 3584 2408 3439
Q 2688 3294 2919 2988
z
M 2181 722
Q 2541 722 2730 984
Q 2919 1247 2919 1747
Q 2919 2247 2730 2509
Q 2541 2772 2181 2772
Q 1825 2772 1636 2509
Q 1447 2247 1447 1747
Q 1447 1247 1636 984
Q 1825 722 2181 722
z
" transform="scale(0.015625)"/>
       <path id="DejaVuSans-Bold-20" transform="scale(0.015625)"/>
       <path id="DejaVuSans-Bold-74" d="M 1759 4494
L 1759 3500
L 2913 3500
L 2913 2700
L 1759 2700
L 1759 1216
Q 1759 972 1856 886
Q 1953 800 2241 800
L 2816 800
L 2816 0
L 1856 0
Q 1194 0 917 276
Q 641 553 641 1216
L 641 2700
L 84 2700
L 84 3500
L 641 3500
L 641 4494
L 1759 4494
z
" transform="scale(0.015625)"/>
       <path id="DejaVuSans-Bold-69" d="M 538 3500
L 1656 3500
L 1656 0
L 538 0
L 538 3500
z
M 538 4863
L 1656 4863
L 1656 3950
L 538 3950
L 538 4863
z
" transform="scale(0.015625)"/>
       <path id="DejaVuSans-Bold-6d" d="M 3781 2919
Q 3994 3244 4286 3414
Q 4578 3584 4928 3584
Q 5531 3584 5847 3212
Q 6163 2841 6163 2131
L 6163 0
L 5038 0
L 5038 1825
Q 5041 1866 5042 1909
Q 5044 1953 5044 2034
Q 5044 2406 4934 2573
Q 4825 2741 4581 2741
Q 4263 2741 4089 2478
Q 3916 2216 3909 1719
L 3909 0
L 2784 0
L 2784 1825
Q 2784 2406 2684 2573
Q 2584 2741 2328 2741
Q 2006 2741 1831 2477
Q 1656 2213 1656 1722
L 1656 0
L 531 0
L 531 3500
L 1656 3500
L 1656 2988
Q 1863 3284 2130 3434
Q 2397 3584 2719 3584
Q 3081 3584 3359 3409
Q 3638 3234 3781 2919
z
" transform="scale(0.015625)"/>
       <path id="DejaVuSans-Bold-28" d="M 2413 -844
L 1484 -844
Q 1006 -72 778 623
Q 550 1319 550 2003
Q 550 2688 779 3389
Q 1009 4091 1484 4856
L 2413 4856
Q 2013 4116 1813 3408
Q 1613 2700 1613 2009
Q 1613 1319 1811 609
Q 2009 -100 2413 -844
z
" transform="scale(0.015625)"/>
       <path id="DejaVuSans-Bold-29" d="M 513 -844
Q 913 -100 1113 609
Q 1313 1319 1313 2009
Q 1313 2700 1113 3408
Q 913 4116 513 4856
L 1441 4856
Q 1916 4091 2145 3389
Q 2375 2688 2375 2003
Q 2375 1319 2147 623
Q 1919 -72 1441 -844
L 513 -844
z
" transform="scale(0.015625)"/>
      </defs>
      <use xlink:href="#DejaVuSans-Bold-45"/>
      <use xlink:href="#DejaVuSans-Bold-6c" transform="translate(68.310547 0)"/>
      <use xlink:href="#DejaVuSans-Bold-61" transform="translate(102.587891 0)"/>
      <use xlink:href="#DejaVuSans-Bold-70" transform="translate(170.068359 0)"/>
      <use xlink:href="#DejaVuSans-Bold-73" transform="translate(241.650391 0)"/>
      <use xlink:href="#DejaVuSans-Bold-65" transform="translate(301.171875 0)"/>
      <use xlink:href="#DejaVuSans-Bold-64" transform="translate(368.994141 0)"/>
      <use xlink:href="#DejaVuSans-Bold-20" transform="translate(440.576172 0)"/>
      <use xlink:href="#DejaVuSans-Bold-74" transform="translate(475.390625 0)"/>
      <use xlink:href="#DejaVuSans-Bold-69" transform="translate(523.193359 0)"/>
      <use xlink:href="#DejaVuSans-Bold-6d" transform="translate(557.470703 0)"/>
      <use xlink:href="#DejaVuSans-Bold-65" transform="translate(661.669922 0)"/>
      <use xlink:href="#DejaVuSans-Bold-20" transform="translate(729.492188 0)"/>
      <use xlink:href="#DejaVuSans-Bold-28" transform="translate(764.306641 0)"/>
      <use xlink:href="#DejaVuSans-Bold-73" transform="translate(810.009766 0)"/>
      <use xlink:href="#DejaVuSans-Bold-29" transform="translate(869.53125 0)"/>
     </g>
    </g>
   </g>
   <g id="matplotlib.axis_2">
    <g id="ytick_1">
     <g id="line2d_11">
      <path d="M 84.58625 355.885904
L 587.685565 355.885904
" clip-path="url(#p02abb7f9dd)" style="fill: none; stroke-dasharray: 3.33,1.44; stroke-dashoffset: 0; stroke: #b0b0b0; stroke-opacity: 0.45; stroke-width: 0.9"/>
     </g>
     <g id="line2d_12">
      <defs>
       <path id="m047a39181c" d="M 0 0
L -6 0
" style="stroke: #000000; stroke-width: 1.8"/>
      </defs>
      <g>
       <use xlink:href="#m047a39181c" x="84.58625" y="355.885904" style="stroke: #000000; stroke-width: 1.8"/>
      </g>
     </g>
     <g id="text_7">
      <!-- 1300 -->
      <g transform="translate(30.55625 361.964654) scale(0.16 -0.16)">
       <defs>
        <path id="DejaVuSans-Bold-33" d="M 2981 2516
Q 3453 2394 3698 2092
Q 3944 1791 3944 1325
Q 3944 631 3412 270
Q 2881 -91 1863 -91
Q 1503 -91 1142 -33
Q 781 25 428 141
L 428 1069
Q 766 900 1098 814
Q 1431 728 1753 728
Q 2231 728 2486 893
Q 2741 1059 2741 1369
Q 2741 1688 2480 1852
Q 2219 2016 1709 2016
L 1228 2016
L 1228 2791
L 1734 2791
Q 2188 2791 2409 2933
Q 2631 3075 2631 3366
Q 2631 3634 2415 3781
Q 2200 3928 1806 3928
Q 1516 3928 1219 3862
Q 922 3797 628 3669
L 628 4550
Q 984 4650 1334 4700
Q 1684 4750 2022 4750
Q 2931 4750 3382 4451
Q 3834 4153 3834 3553
Q 3834 3144 3618 2883
Q 3403 2622 2981 2516
z
" transform="scale(0.015625)"/>
       </defs>
       <use xlink:href="#DejaVuSans-Bold-31"/>
       <use xlink:href="#DejaVuSans-Bold-33" transform="translate(69.580078 0)"/>
       <use xlink:href="#DejaVuSans-Bold-30" transform="translate(139.160156 0)"/>
       <use xlink:href="#DejaVuSans-Bold-30" transform="translate(208.740234 0)"/>
      </g>
     </g>
    </g>
    <g id="ytick_2">
     <g id="line2d_13">
      <path d="M 84.58625 301.670446
L 587.685565 301.670446
" clip-path="url(#p02abb7f9dd)" style="fill: none; stroke-dasharray: 3.33,1.44; stroke-dashoffset: 0; stroke: #b0b0b0; stroke-opacity: 0.45; stroke-width: 0.9"/>
     </g>
     <g id="line2d_14">
      <g>
       <use xlink:href="#m047a39181c" x="84.58625" y="301.670446" style="stroke: #000000; stroke-width: 1.8"/>
      </g>
     </g>
     <g id="text_8">
      <!-- 1320 -->
      <g transform="translate(30.55625 307.749196) scale(0.16 -0.16)">
       <use xlink:href="#DejaVuSans-Bold-31"/>
       <use xlink:href="#DejaVuSans-Bold-33" transform="translate(69.580078 0)"/>
       <use xlink:href="#DejaVuSans-Bold-32" transform="translate(139.160156 0)"/>
       <use xlink:href="#DejaVuSans-Bold-30" transform="translate(208.740234 0)"/>
      </g>
     </g>
    </g>
    <g id="ytick_3">
     <g id="line2d_15">
      <path d="M 84.58625 247.454989
L 587.685565 247.454989
" clip-path="url(#p02abb7f9dd)" style="fill: none; stroke-dasharray: 3.33,1.44; stroke-dashoffset: 0; stroke: #b0b0b0; stroke-opacity: 0.45; stroke-width: 0.9"/>
     </g>
     <g id="line2d_16">
      <g>
       <use xlink:href="#m047a39181c" x="84.58625" y="247.454989" style="stroke: #000000; stroke-width: 1.8"/>
      </g>
     </g>
     <g id="text_9">
      <!-- 1340 -->
      <g transform="translate(30.55625 253.533739) scale(0.16 -0.16)">
       <defs>
        <path id="DejaVuSans-Bold-34" d="M 2356 3675
L 1038 1722
L 2356 1722
L 2356 3675
z
M 2156 4666
L 3494 4666
L 3494 1722
L 4159 1722
L 4159 850
L 3494 850
L 3494 0
L 2356 0
L 2356 850
L 288 850
L 288 1881
L 2156 4666
z
" transform="scale(0.015625)"/>
       </defs>
       <use xlink:href="#DejaVuSans-Bold-31"/>
       <use xlink:href="#DejaVuSans-Bold-33" transform="translate(69.580078 0)"/>
       <use xlink:href="#DejaVuSans-Bold-34" transform="translate(139.160156 0)"/>
       <use xlink:href="#DejaVuSans-Bold-30" transform="translate(208.740234 0)"/>
      </g>
     </g>
    </g>
    <g id="ytick_4">
     <g id="line2d_17">
      <path d="M 84.58625 193.239531
L 587.685565 193.239531
" clip-path="url(#p02abb7f9dd)" style="fill: none; stroke-dasharray: 3.33,1.44; stroke-dashoffset: 0; stroke: #b0b0b0; stroke-opacity: 0.45; stroke-width: 0.9"/>
     </g>
     <g id="line2d_18">
      <g>
       <use xlink:href="#m047a39181c" x="84.58625" y="193.239531" style="stroke: #000000; stroke-width: 1.8"/>
      </g>
     </g>
     <g id="text_10">
      <!-- 1360 -->
      <g transform="translate(30.55625 199.318281) scale(0.16 -0.16)">
       <defs>
        <path id="DejaVuSans-Bold-36" d="M 2316 2303
Q 2000 2303 1842 2098
Q 1684 1894 1684 1484
Q 1684 1075 1842 870
Q 2000 666 2316 666
Q 2634 666 2792 870
Q 2950 1075 2950 1484
Q 2950 1894 2792 2098
Q 2634 2303 2316 2303
z
M 3803 4544
L 3803 3681
Q 3506 3822 3243 3889
Q 2981 3956 2731 3956
Q 2194 3956 1894 3657
Q 1594 3359 1544 2772
Q 1750 2925 1990 3001
Q 2231 3078 2516 3078
Q 3231 3078 3670 2659
Q 4109 2241 4109 1563
Q 4109 813 3618 361
Q 3128 -91 2303 -91
Q 1394 -91 895 523
Q 397 1138 397 2266
Q 397 3422 980 4083
Q 1563 4744 2578 4744
Q 2900 4744 3203 4694
Q 3506 4644 3803 4544
z
" transform="scale(0.015625)"/>
       </defs>
       <use xlink:href="#DejaVuSans-Bold-31"/>
       <use xlink:href="#DejaVuSans-Bold-33" transform="translate(69.580078 0)"/>
       <use xlink:href="#DejaVuSans-Bold-36" transform="translate(139.160156 0)"/>
       <use xlink:href="#DejaVuSans-Bold-30" transform="translate(208.740234 0)"/>
      </g>
     </g>
    </g>
    <g id="ytick_5">
     <g id="line2d_19">
      <path d="M 84.58625 139.024074
L 587.685565 139.024074
" clip-path="url(#p02abb7f9dd)" style="fill: none; stroke-dasharray: 3.33,1.44; stroke-dashoffset: 0; stroke: #b0b0b0; stroke-opacity: 0.45; stroke-width: 0.9"/>
     </g>
     <g id="line2d_20">
      <g>
       <use xlink:href="#m047a39181c" x="84.58625" y="139.024074" style="stroke: #000000; stroke-width: 1.8"/>
      </g>
     </g>
     <g id="text_11">
      <!-- 1380 -->
      <g transform="translate(30.55625 145.102824) scale(0.16 -0.16)">
       <defs>
        <path id="DejaVuSans-Bold-38" d="M 2228 2088
Q 1891 2088 1709 1903
Q 1528 1719 1528 1375
Q 1528 1031 1709 848
Q 1891 666 2228 666
Q 2563 666 2741 848
Q 2919 1031 2919 1375
Q 2919 1722 2741 1905
Q 2563 2088 2228 2088
z
M 1350 2484
Q 925 2613 709 2878
Q 494 3144 494 3541
Q 494 4131 934 4440
Q 1375 4750 2228 4750
Q 3075 4750 3515 4442
Q 3956 4134 3956 3541
Q 3956 3144 3739 2878
Q 3522 2613 3097 2484
Q 3572 2353 3814 2058
Q 4056 1763 4056 1313
Q 4056 619 3595 264
Q 3134 -91 2228 -91
Q 1319 -91 855 264
Q 391 619 391 1313
Q 391 1763 633 2058
Q 875 2353 1350 2484
z
M 1631 3419
Q 1631 3141 1786 2991
Q 1941 2841 2228 2841
Q 2509 2841 2662 2991
Q 2816 3141 2816 3419
Q 2816 3697 2662 3845
Q 2509 3994 2228 3994
Q 1941 3994 1786 3844
Q 1631 3694 1631 3419
z
" transform="scale(0.015625)"/>
       </defs>
       <use xlink:href="#DejaVuSans-Bold-31"/>
       <use xlink:href="#DejaVuSans-Bold-33" transform="translate(69.580078 0)"/>
       <use xlink:href="#DejaVuSans-Bold-38" transform="translate(139.160156 0)"/>
       <use xlink:href="#DejaVuSans-Bold-30" transform="translate(208.740234 0)"/>
      </g>
     </g>
    </g>
    <g id="ytick_6">
     <g id="line2d_21">
      <path d="M 84.58625 84.808616
L 587.685565 84.808616
" clip-path="url(#p02abb7f9dd)" style="fill: none; stroke-dasharray: 3.33,1.44; stroke-dashoffset: 0; stroke: #b0b0b0; stroke-opacity: 0.45; stroke-width: 0.9"/>
     </g>
     <g id="line2d_22">
      <g>
       <use xlink:href="#m047a39181c" x="84.58625" y="84.808616" style="stroke: #000000; stroke-width: 1.8"/>
      </g>
     </g>
     <g id="text_12">
      <!-- 1400 -->
      <g transform="translate(30.55625 90.887366) scale(0.16 -0.16)">
       <use xlink:href="#DejaVuSans-Bold-31"/>
       <use xlink:href="#DejaVuSans-Bold-34" transform="translate(69.580078 0)"/>
       <use xlink:href="#DejaVuSans-Bold-30" transform="translate(139.160156 0)"/>
       <use xlink:href="#DejaVuSans-Bold-30" transform="translate(208.740234 0)"/>
      </g>
     </g>
    </g>
    <g id="text_13">
     <!-- GPU Clock (MHz) -->
     <g transform="translate(22.396875 314.464447) rotate(-90) scale(0.2 -0.2)">
      <defs>
       <path id="DejaVuSans-Bold-47" d="M 4781 347
Q 4331 128 3847 18
Q 3363 -91 2847 -91
Q 1681 -91 1000 561
Q 319 1213 319 2328
Q 319 3456 1012 4103
Q 1706 4750 2913 4750
Q 3378 4750 3804 4662
Q 4231 4575 4609 4403
L 4609 3438
Q 4219 3659 3833 3768
Q 3447 3878 3059 3878
Q 2341 3878 1952 3476
Q 1563 3075 1563 2328
Q 1563 1588 1938 1184
Q 2313 781 3003 781
Q 3191 781 3352 804
Q 3513 828 3641 878
L 3641 1784
L 2906 1784
L 2906 2591
L 4781 2591
L 4781 347
z
" transform="scale(0.015625)"/>
       <path id="DejaVuSans-Bold-50" d="M 588 4666
L 2584 4666
Q 3475 4666 3951 4270
Q 4428 3875 4428 3144
Q 4428 2409 3951 2014
Q 3475 1619 2584 1619
L 1791 1619
L 1791 0
L 588 0
L 588 4666
z
M 1791 3794
L 1791 2491
L 2456 2491
Q 2806 2491 2997 2661
Q 3188 2831 3188 3144
Q 3188 3456 2997 3625
Q 2806 3794 2456 3794
L 1791 3794
z
" transform="scale(0.015625)"/>
       <path id="DejaVuSans-Bold-55" d="M 588 4666
L 1791 4666
L 1791 1869
Q 1791 1291 1980 1042
Q 2169 794 2597 794
Q 3028 794 3217 1042
Q 3406 1291 3406 1869
L 3406 4666
L 4609 4666
L 4609 1869
Q 4609 878 4112 393
Q 3616 -91 2597 -91
Q 1581 -91 1084 393
Q 588 878 588 1869
L 588 4666
z
" transform="scale(0.015625)"/>
       <path id="DejaVuSans-Bold-43" d="M 4288 256
Q 3956 84 3597 -3
Q 3238 -91 2847 -91
Q 1681 -91 1000 561
Q 319 1213 319 2328
Q 319 3447 1000 4098
Q 1681 4750 2847 4750
Q 3238 4750 3597 4662
Q 3956 4575 4288 4403
L 4288 3438
Q 3953 3666 3628 3772
Q 3303 3878 2944 3878
Q 2300 3878 1931 3465
Q 1563 3053 1563 2328
Q 1563 1606 1931 1193
Q 2300 781 2944 781
Q 3303 781 3628 887
Q 3953 994 4288 1222
L 4288 256
z
" transform="scale(0.015625)"/>
       <path id="DejaVuSans-Bold-6f" d="M 2203 2784
Q 1831 2784 1636 2517
Q 1441 2250 1441 1747
Q 1441 1244 1636 976
Q 1831 709 2203 709
Q 2569 709 2762 976
Q 2956 1244 2956 1747
Q 2956 2250 2762 2517
Q 2569 2784 2203 2784
z
M 2203 3584
Q 3106 3584 3614 3096
Q 4122 2609 4122 1747
Q 4122 884 3614 396
Q 3106 -91 2203 -91
Q 1297 -91 786 396
Q 275 884 275 1747
Q 275 2609 786 3096
Q 1297 3584 2203 3584
z
" transform="scale(0.015625)"/>
       <path id="DejaVuSans-Bold-63" d="M 3366 3391
L 3366 2478
Q 3138 2634 2908 2709
Q 2678 2784 2431 2784
Q 1963 2784 1702 2511
Q 1441 2238 1441 1747
Q 1441 1256 1702 982
Q 1963 709 2431 709
Q 2694 709 2930 787
Q 3166 866 3366 1019
L 3366 103
Q 3103 6 2833 -42
Q 2563 -91 2291 -91
Q 1344 -91 809 395
Q 275 881 275 1747
Q 275 2613 809 3098
Q 1344 3584 2291 3584
Q 2566 3584 2833 3536
Q 3100 3488 3366 3391
z
" transform="scale(0.015625)"/>
       <path id="DejaVuSans-Bold-6b" d="M 538 4863
L 1656 4863
L 1656 2216
L 2944 3500
L 4244 3500
L 2534 1894
L 4378 0
L 3022 0
L 1656 1459
L 1656 0
L 538 0
L 538 4863
z
" transform="scale(0.015625)"/>
       <path id="DejaVuSans-Bold-4d" d="M 588 4666
L 2119 4666
L 3181 2169
L 4250 4666
L 5778 4666
L 5778 0
L 4641 0
L 4641 3413
L 3566 897
L 2803 897
L 1728 3413
L 1728 0
L 588 0
L 588 4666
z
" transform="scale(0.015625)"/>
       <path id="DejaVuSans-Bold-48" d="M 588 4666
L 1791 4666
L 1791 2888
L 3566 2888
L 3566 4666
L 4769 4666
L 4769 0
L 3566 0
L 3566 1978
L 1791 1978
L 1791 0
L 588 0
L 588 4666
z
" transform="scale(0.015625)"/>
       <path id="DejaVuSans-Bold-7a" d="M 366 3500
L 3419 3500
L 3419 2719
L 1575 800
L 3419 800
L 3419 0
L 288 0
L 288 781
L 2131 2700
L 366 2700
L 366 3500
z
" transform="scale(0.015625)"/>
      </defs>
      <use xlink:href="#DejaVuSans-Bold-47"/>
      <use xlink:href="#DejaVuSans-Bold-50" transform="translate(82.080078 0)"/>
      <use xlink:href="#DejaVuSans-Bold-55" transform="translate(155.371094 0)"/>
      <use xlink:href="#DejaVuSans-Bold-20" transform="translate(236.572266 0)"/>
      <use xlink:href="#DejaVuSans-Bold-43" transform="translate(271.386719 0)"/>
      <use xlink:href="#DejaVuSans-Bold-6c" transform="translate(344.775391 0)"/>
      <use xlink:href="#DejaVuSans-Bold-6f" transform="translate(379.052734 0)"/>
      <use xlink:href="#DejaVuSans-Bold-63" transform="translate(447.753906 0)"/>
      <use xlink:href="#DejaVuSans-Bold-6b" transform="translate(507.03125 0)"/>
      <use xlink:href="#DejaVuSans-Bold-20" transform="translate(573.535156 0)"/>
      <use xlink:href="#DejaVuSans-Bold-28" transform="translate(608.349609 0)"/>
      <use xlink:href="#DejaVuSans-Bold-4d" transform="translate(654.052734 0)"/>
      <use xlink:href="#DejaVuSans-Bold-48" transform="translate(753.564453 0)"/>
      <use xlink:href="#DejaVuSans-Bold-7a" transform="translate(837.255859 0)"/>
      <use xlink:href="#DejaVuSans-Bold-29" transform="translate(895.458984 0)"/>
     </g>
    </g>
   </g>
   <g id="line2d_23">
    <path d="M 107.454401 57.700887
L 564.817415 57.700887
L 564.817415 57.700887
" clip-path="url(#p02abb7f9dd)" style="fill: none; stroke: #1f77b4; stroke-width: 3.4; stroke-linecap: square"/>
   </g>
   <g id="line2d_24">
    <path d="M 107.454401 382.993633
L 111.984883 382.993633
L 114.142256 342.33204
L 133.990085 342.33204
L 136.147458 382.993633
L 155.995287 382.993633
L 158.152659 342.33204
L 178.000488 342.33204
L 181.02081 382.993633
L 262.569498 382.993633
L 264.726871 342.33204
L 306.364164 342.33204
L 308.521537 382.993633
L 328.369366 382.993633
L 330.526739 342.33204
L 350.15883 342.33204
L 352.316203 382.993633
L 372.164032 382.993633
L 374.321405 342.33204
L 393.953496 342.33204
L 396.110869 382.993633
L 479.601193 382.993633
L 481.758566 342.33204
L 486.073311 342.33204
L 486.073311 342.33204
" clip-path="url(#p02abb7f9dd)" style="fill: none; stroke: #d62728; stroke-width: 3.4; stroke-linecap: square"/>
   </g>
   <g id="patch_3">
    <path d="M 84.58625 399.25827
L 84.58625 41.43625
" style="fill: none; stroke: #000000; stroke-width: 1.8; stroke-linejoin: miter; stroke-linecap: square"/>
   </g>
   <g id="patch_4">
    <path d="M 587.685565 399.25827
L 587.685565 41.43625
" style="fill: none; stroke: #000000; stroke-width: 1.8; stroke-linejoin: miter; stroke-linecap: square"/>
   </g>
   <g id="patch_5">
    <path d="M 84.58625 399.25827
L 587.685565 399.25827
" style="fill: none; stroke: #000000; stroke-width: 1.8; stroke-linejoin: miter; stroke-linecap: square"/>
   </g>
   <g id="patch_6">
    <path d="M 84.58625 41.43625
L 587.685565 41.43625
" style="fill: none; stroke: #000000; stroke-width: 1.8; stroke-linejoin: miter; stroke-linecap: square"/>
   </g>
   <g id="text_14">
    <!-- GPU Clock Timeline -->
    <g transform="translate(205.279658 25.43625) scale(0.24 -0.24)">
     <defs>
      <path id="DejaVuSans-Bold-54" d="M 31 4666
L 4331 4666
L 4331 3756
L 2784 3756
L 2784 0
L 1581 0
L 1581 3756
L 31 3756
L 31 4666
z
" transform="scale(0.015625)"/>
      <path id="DejaVuSans-Bold-6e" d="M 4056 2131
L 4056 0
L 2931 0
L 2931 347
L 2931 1631
Q 2931 2084 2911 2256
Q 2891 2428 2841 2509
Q 2775 2619 2662 2680
Q 2550 2741 2406 2741
Q 2056 2741 1856 2470
Q 1656 2200 1656 1722
L 1656 0
L 538 0
L 538 3500
L 1656 3500
L 1656 2988
Q 1909 3294 2193 3439
Q 2478 3584 2822 3584
Q 3428 3584 3742 3212
Q 4056 2841 4056 2131
z
" transform="scale(0.015625)"/>
     </defs>
     <use xlink:href="#DejaVuSans-Bold-47"/>
     <use xlink:href="#DejaVuSans-Bold-50" transform="translate(82.080078 0)"/>
     <use xlink:href="#DejaVuSans-Bold-55" transform="translate(155.371094 0)"/>
     <use xlink:href="#DejaVuSans-Bold-20" transform="translate(236.572266 0)"/>
     <use xlink:href="#DejaVuSans-Bold-43" transform="translate(271.386719 0)"/>
     <use xlink:href="#DejaVuSans-Bold-6c" transform="translate(344.775391 0)"/>
     <use xlink:href="#DejaVuSans-Bold-6f" transform="translate(379.052734 0)"/>
     <use xlink:href="#DejaVuSans-Bold-63" transform="translate(447.753906 0)"/>
     <use xlink:href="#DejaVuSans-Bold-6b" transform="translate(507.03125 0)"/>
     <use xlink:href="#DejaVuSans-Bold-20" transform="translate(573.535156 0)"/>
     <use xlink:href="#DejaVuSans-Bold-54" transform="translate(608.349609 0)"/>
     <use xlink:href="#DejaVuSans-Bold-69" transform="translate(676.5625 0)"/>
     <use xlink:href="#DejaVuSans-Bold-6d" transform="translate(710.839844 0)"/>
     <use xlink:href="#DejaVuSans-Bold-65" transform="translate(815.039062 0)"/>
     <use xlink:href="#DejaVuSans-Bold-6c" transform="translate(882.861328 0)"/>
     <use xlink:href="#DejaVuSans-Bold-69" transform="translate(917.138672 0)"/>
     <use xlink:href="#DejaVuSans-Bold-6e" transform="translate(951.416016 0)"/>
     <use xlink:href="#DejaVuSans-Bold-65" transform="translate(1022.607422 0)"/>
    </g>
   </g>
   <g id="legend_1">
    <g id="patch_7">
     <path d="M 601.347552 249.467885
L 753.599427 249.467885
Q 757.199427 249.467885 757.199427 245.867885
L 757.199427 194.826635
Q 757.199427 191.226635 753.599427 191.226635
L 601.347552 191.226635
Q 597.747552 191.226635 597.747552 194.826635
L 597.747552 245.867885
Q 597.747552 249.467885 601.347552 249.467885
z
" style="fill: #ffffff; opacity: 0.8; stroke: #cccccc; stroke-linejoin: miter"/>
    </g>
    <g id="line2d_25">
     <path d="M 604.947552 205.803822
L 622.947552 205.803822
L 640.947552 205.803822
" style="fill: none; stroke: #1f77b4; stroke-width: 3.4; stroke-linecap: square"/>
    </g>
    <g id="text_15">
     <!-- w/o norm -->
     <g transform="translate(655.347552 212.103822) scale(0.18 -0.18)">
      <defs>
       <path id="DejaVuSans-Bold-77" d="M 225 3500
L 1313 3500
L 1900 1088
L 2491 3500
L 3425 3500
L 4013 1113
L 4603 3500
L 5691 3500
L 4769 0
L 3547 0
L 2956 2406
L 2369 0
L 1147 0
L 225 3500
z
" transform="scale(0.015625)"/>
       <path id="DejaVuSans-Bold-2f" d="M 1644 4666
L 2338 4666
L 691 -594
L 0 -594
L 1644 4666
z
" transform="scale(0.015625)"/>
       <path id="DejaVuSans-Bold-72" d="M 3138 2547
Q 2991 2616 2845 2648
Q 2700 2681 2553 2681
Q 2122 2681 1889 2404
Q 1656 2128 1656 1613
L 1656 0
L 538 0
L 538 3500
L 1656 3500
L 1656 2925
Q 1872 3269 2151 3426
Q 2431 3584 2822 3584
Q 2878 3584 2943 3579
Q 3009 3575 3134 3559
L 3138 2547
z
" transform="scale(0.015625)"/>
      </defs>
      <use xlink:href="#DejaVuSans-Bold-77"/>
      <use xlink:href="#DejaVuSans-Bold-2f" transform="translate(92.382812 0)"/>
      <use xlink:href="#DejaVuSans-Bold-6f" transform="translate(128.90625 0)"/>
      <use xlink:href="#DejaVuSans-Bold-20" transform="translate(197.607422 0)"/>
      <use xlink:href="#DejaVuSans-Bold-6e" transform="translate(232.421875 0)"/>
      <use xlink:href="#DejaVuSans-Bold-6f" transform="translate(303.613281 0)"/>
      <use xlink:href="#DejaVuSans-Bold-72" transform="translate(372.314453 0)"/>
      <use xlink:href="#DejaVuSans-Bold-6d" transform="translate(421.630859 0)"/>
     </g>
    </g>
    <g id="line2d_26">
     <path d="M 604.947552 232.224447
L 622.947552 232.224447
L 640.947552 232.224447
" style="fill: none; stroke: #d62728; stroke-width: 3.4; stroke-linecap: square"/>
    </g>
    <g id="text_16">
     <!-- w/ norm -->
     <g transform="translate(655.347552 238.524447) scale(0.18 -0.18)">
      <use xlink:href="#DejaVuSans-Bold-77"/>
      <use xlink:href="#DejaVuSans-Bold-2f" transform="translate(92.382812 0)"/>
      <use xlink:href="#DejaVuSans-Bold-20" transform="translate(128.90625 0)"/>
      <use xlink:href="#DejaVuSans-Bold-6e" transform="translate(163.720703 0)"/>
      <use xlink:href="#DejaVuSans-Bold-6f" transform="translate(234.912109 0)"/>
      <use xlink:href="#DejaVuSans-Bold-72" transform="translate(303.613281 0)"/>
      <use xlink:href="#DejaVuSans-Bold-6d" transform="translate(352.929688 0)"/>
     </g>
    </g>
   </g>
  </g>
 </g>
 <defs>
  <clipPath id="p02abb7f9dd">
   <rect x="84.58625" y="41.43625" width="503.099315" height="357.82202"/>
  </clipPath>
 </defs>
</svg>
